<svg width="206" height="231" viewBox="0 0 206 231" fill="none" xmlns="http://www.w3.org/2000/svg">
<path d="M143.143 84C143.143 96.1503 133.293 106 121.143 106C108.992 106 99.1426 96.1503 99.1426 84C99.1426 71.8497 108.992 62 121.143 62C133.293 62 143.143 71.8497 143.143 84Z" fill="#FFC131"/>
<path d="M206 84.0001C206 130.392 168.392 168 122 168C75.6081 168 38 130.392 38 84.0001C38 37.6081 75.6081 0 122 0C168.392 0 206 37.6081 206 84.0001ZM67.0999 84.0001C67.0999 114.301 91.6995 138.9 122 138.9C152.3 138.9 176.9 114.301 176.9 84.0001C176.9 53.6996 152.3 29.1 122 29.1C91.6995 29.1 67.0999 53.6996 67.0999 84.0001Z" fill="#24C8DB"/>
<path d="M83.9999 147C83.9999 159.15 74.1502 169 61.9999 169C49.8496 169 39.9999 159.15 39.9999 147C39.9999 134.85 49.8496 125 61.9999 125C74.1502 125 83.9999 134.85 83.9999 147Z" fill="#FFC131"/>
<path d="M168 147C168 193.392 130.392 231 84 231C37.6081 231 0 193.392 0 147C0 100.608 37.6081 63 84 63C130.392 63 168 100.608 168 147ZM29.1 147C29.1 177.301 53.6995 201.9 84 201.9C114.3 201.9 138.9 177.301 138.9 147C138.9 116.7 114.3 92.1001 84 92.1001C53.6995 92.1001 29.1 116.7 29.1 147Z" fill="#24C8DB"/>
</svg>
