<svg xmlns="http://www.w3.org/2000/svg" xmlns:xlink="http://www.w3.org/1999/xlink" aria-hidden="true" role="img" class="iconify iconify--logos" width="35.93" height="32" preserveAspectRatio="xMidYMid meet" viewBox="0 0 256 228"><path fill="#00D8FF" d="M210.483 73.824a171.49 171.49 0 0 0-8.24-2.597c.465-1.9.893-3.777 1.273-5.621c6.238-30.281 2.16-54.676-11.769-62.708c-13.355-7.7-35.196.329-57.254 19.526a171.23 171.23 0 0 0-6.375 5.848a155.866 155.866 0 0 0-4.241-3.917C100.759 3.829 77.587-4.822 63.673 3.233C50.33 10.957 46.379 33.89 51.995 62.588a170.974 170.974 0 0 0 1.892 8.48c-3.28.932-6.445 1.924-9.474 2.98C17.309 83.498 0 98.307 0 113.668c0 15.865 18.582 31.778 46.812 41.427a145.52 145.52 0 0 0 6.921 2.165a167.467 167.467 0 0 0-2.01 9.138c-5.354 28.2-1.173 50.591 12.134 58.266c13.744 7.926 36.812-.22 59.273-19.855a145.567 145.567 0 0 0 5.342-4.923a168.064 168.064 0 0 0 6.92 6.314c21.758 18.722 43.246 26.282 56.54 18.586c13.731-7.949 18.194-32.003 12.4-61.268a145.016 145.016 0 0 0-1.535-6.842c1.62-.48 3.21-.985 4.753-1.52c28.12-9.815 45.918-25.652 45.918-41.088c.001-14.911-16.509-30.05-43.505-39.591Zm-77.41 131.05c-18.042 16.044-35.29 22.86-43.56 18.086c-8.784-5.075-12.01-24.43-6.872-49.195a141.17 141.17 0 0 1 1.815-8.242a382.986 382.986 0 0 0 50.111 5.606a391.55 391.55 0 0 0 30.87 37.936a127.168 127.168 0 0 1-4.631 4.263c-8.843 7.617-18.461 13.849-27.733 18.546Zm-25.122-86.5h-3.934c-5.227 0-10.374.166-15.418.468c.342-5.124.783-10.277 1.324-15.402c1.67.822 3.354 1.665 5.064 2.54c1.705.872 3.389 1.774 5.063 2.702c1.672.928 3.318 1.878 4.943 2.857c1.627.98 3.222 1.98 4.8 3.001c.84.54 1.67 1.093 2.496 1.655l-.338-.821Zm-22.79 36.553c-.548-5.127-.995-10.281-1.34-15.408c5.044.302 10.19.468 15.418.468h3.935l.338.822c-.828.562-1.66 1.115-2.496 1.654c-1.578 1.022-3.173 2.02-4.8 3.002c-1.625.978-3.271 1.928-4.943 2.856c-1.674.93-3.358 1.83-5.063 2.702c-1.71.875-3.394 1.718-5.064 2.54Zm7.785-31.25c2.26-4.093 4.63-8.11 7.11-12.053a389.328 389.328 0 0 1 7.873-12.126c5.41-.332 10.911-.502 16.485-.502c5.574 0 11.073.17 16.485.502a381.698 381.698 0 0 1 7.873 12.126a390.81 390.81 0 0 1 7.11 12.053a389.328 389.328 0 0 1-7.108 12.053a389.328 389.328 0 0 1-7.874 12.126c-5.412.332-10.913.502-16.486.502c-5.573 0-11.074-.17-16.486-.502a389.282 389.282 0 0 1-7.873-12.126a390.81 390.81 0 0 1-7.108-12.053Zm84.098-21.093c1.67-.822 3.354-1.665 5.063-2.54c1.705-.872 3.389-1.774 5.064-2.702a372.555 372.555 0 0 1 4.943-2.857c1.627-.98 3.222-1.98 4.8-3.001a378.96 378.96 0 0 1 2.496-1.655l-.338.821h3.934c5.227 0 10.374-.166 15.418-.468a379.96 379.96 0 0 1-1.324 15.402c-1.67-.822-3.354-1.665-5.064-2.54c-1.704-.872-3.388-1.774-5.063-2.702a372.555 372.555 0 0 1-4.943-2.857c-1.627-.98-3.222-1.98-4.8-3.001c-.84-.54-1.67-1.093-2.496-1.655l.338.821h-3.934c-5.227 0-10.374.166-15.418.468c.342 5.124.783 10.277 1.324 15.402Zm-71.76 57.343c-19.06-3.062-35.897-7.746-48.86-13.53c-13.536-6.043-22.125-13.128-22.125-18.59c0-5.96 9.872-13.73 25.28-20.068a124.984 124.984 0 0 1 8.595-3.237a366.87 366.87 0 0 0 15.26 38.266a380.093 380.093 0 0 0 21.859 37.155c-.002 0-.005 0-.008.004Zm11.32-107.45c-5.138-24.765-1.866-44.12 7.418-49.28c9.812-5.453 28.188 1.078 47.268 18.56a122.952 122.952 0 0 1 3.686 3.573a392.063 392.063 0 0 0-31.195 37.89a393.024 393.024 0 0 0-50.104 5.57a138.665 138.665 0 0 1-1.657-7.857c1.388-.61 2.77-1.2 4.148-1.763c2.085-.855 4.192-1.658 6.317-2.41c2.12-.75 4.255-1.44 6.4-2.072a148.166 148.166 0 0 1 6.546-1.776c.392-.094.783-.186 1.173-.274l.001-.161Zm94.76 62.17c12.963 5.784 29.8 10.468 48.86 13.53c-6.875 12.73-14.88 25.04-23.858 36.53c-4.013-5.456-8.085-10.938-12.214-16.447c-4.13-5.508-8.357-10.99-12.672-16.44c-.176-.223-.354-.443-.53-.664l.414-16.51Zm-76.2 74.19c-8.785 5.075-26.033.25-44.074-16.17c-1.2-1.095-2.395-2.232-3.583-3.41a394.57 394.57 0 0 0 30.973-37.93a395.038 395.038 0 0 0 50.104-5.57c.62 2.52 1.19 5.08 1.712 7.684c5.355 26.765 1.172 49.153-12.133 56.866c-8.27 4.774-21.947 2.82-39.544-7.744c.55.516 1.1 1.027 1.65 1.528c.55.502 1.1 1 1.65 1.49c.55.492 1.103.976 1.655 1.453c.553.477 1.105.947 1.658 1.41a137.135 137.135 0 0 1-.067 2.393ZM127.93 110.219c3.937 0 7.128 3.192 7.128 7.13s-3.191 7.129-7.128 7.129c-3.938 0-7.13-3.19-7.13-7.13c0-3.937 3.192-7.129 7.13-7.129Z"></path></svg>
